<svg xmlns="http://www.w3.org/2000/svg" xmlns:xlink="http://www.w3.org/1999/xlink" width="500" zoomAndPan="magnify" viewBox="0 0 375 440.999991" height="500" preserveAspectRatio="xMidYMid meet" version="1.0"><defs><g/></defs><g fill="#ff3873" fill-opacity="0.302"><g transform="translate(25.073551, 251.555587)"><g><path d="M 55.488281 -36.480469 C 53.804688 -37.09375 51.964844 -36.328125 51.195312 -34.796875 C 42.613281 -15.023438 32.804688 -6.132812 20.234375 -6.4375 C 11.035156 -6.746094 6.132812 -12.109375 6.4375 -20.847656 C 6.589844 -24.066406 7.050781 -26.976562 8.125 -30.964844 C 25.140625 -35.101562 47.976562 -44.914062 47.976562 -61.160156 C 47.976562 -68.519531 42.613281 -72.503906 34.949219 -72.503906 C 16.863281 -72.503906 0.917969 -40.621094 0 -21 C -0.304688 -8.429688 7.359375 0 20.082031 0 C 35.5625 0 47.210938 -10.117188 57.175781 -32.191406 C 57.328125 -32.648438 57.480469 -32.957031 57.480469 -33.417969 C 57.480469 -34.640625 56.714844 -35.867188 55.488281 -36.480469 Z M 10.578125 -38.320312 C 15.480469 -50.125 24.371094 -66.066406 34.949219 -66.066406 C 38.320312 -66.066406 41.539062 -65.300781 41.539062 -61.160156 C 41.539062 -49.816406 23.300781 -42.308594 10.578125 -38.320312 Z M 10.578125 -38.320312 "/></g></g></g><g fill="#ff3873" fill-opacity="0.302"><g transform="translate(73.663708, 251.555587)"><g><path d="M 59.78125 -36.480469 C 59.320312 -36.636719 58.863281 -36.789062 58.402344 -36.789062 C 57.175781 -36.789062 55.796875 -36.175781 55.488281 -34.796875 C 53.035156 -26.058594 45.984375 -16.25 37.863281 -16.25 C 34.949219 -16.25 32.496094 -17.320312 30.503906 -19.46875 C 33.417969 -24.21875 50.429688 -57.480469 55.640625 -68.210938 C 55.796875 -68.671875 55.949219 -69.132812 55.949219 -69.589844 C 55.949219 -70.816406 55.183594 -72.042969 54.109375 -72.65625 C 53.648438 -72.808594 53.191406 -72.964844 52.730469 -72.964844 C 51.503906 -72.964844 50.277344 -72.195312 49.664062 -71.125 C 47.363281 -66.066406 30.042969 -31.730469 28.359375 -28.972656 C 28.511719 -30.042969 28.816406 -31.421875 29.125 -32.648438 C 29.585938 -34.796875 28.050781 -36.789062 25.90625 -36.789062 C 24.527344 -36.789062 23.300781 -35.867188 22.839844 -34.335938 C 21.613281 -30.042969 21.304688 -24.371094 22.992188 -19.773438 C 19.46875 -13.640625 13.796875 -6.4375 8.429688 -6.4375 C 5.058594 -6.4375 3.832031 -8.429688 3.832031 -12.875 C 3.832031 -18.699219 8.429688 -31.730469 21.765625 -68.519531 C 22.53125 -70.511719 21.152344 -72.808594 18.699219 -72.808594 C 17.320312 -72.808594 16.09375 -72.042969 15.636719 -70.816406 C 4.90625 -40.3125 -2.605469 -22.6875 -2.605469 -12.875 C -2.605469 -5.363281 0.765625 0 8.429688 0 C 15.023438 0 19.46875 -3.832031 26.976562 -13.949219 C 29.738281 -11.191406 33.570312 -9.808594 37.707031 -9.808594 C 48.4375 -9.808594 58.09375 -20.847656 61.46875 -32.34375 C 61.621094 -32.804688 61.773438 -33.109375 61.773438 -33.570312 C 61.773438 -34.796875 61.007812 -36.023438 59.78125 -36.480469 Z M 59.78125 -36.480469 "/></g></g></g><g fill="#ff3873" fill-opacity="0.302"><g transform="translate(126.545743, 251.555587)"><g><path d="M 55.488281 -36.480469 C 53.804688 -37.09375 51.964844 -36.328125 51.195312 -34.796875 C 42.613281 -15.023438 32.804688 -6.132812 20.234375 -6.4375 C 11.035156 -6.746094 6.132812 -12.109375 6.4375 -20.847656 C 6.589844 -24.066406 7.050781 -26.976562 8.125 -30.964844 C 25.140625 -35.101562 47.976562 -44.914062 47.976562 -61.160156 C 47.976562 -68.519531 42.613281 -72.503906 34.949219 -72.503906 C 16.863281 -72.503906 0.917969 -40.621094 0 -21 C -0.304688 -8.429688 7.359375 0 20.082031 0 C 35.5625 0 47.210938 -10.117188 57.175781 -32.191406 C 57.328125 -32.648438 57.480469 -32.957031 57.480469 -33.417969 C 57.480469 -34.640625 56.714844 -35.867188 55.488281 -36.480469 Z M 10.578125 -38.320312 C 15.480469 -50.125 24.371094 -66.066406 34.949219 -66.066406 C 38.320312 -66.066406 41.539062 -65.300781 41.539062 -61.160156 C 41.539062 -49.816406 23.300781 -42.308594 10.578125 -38.320312 Z M 10.578125 -38.320312 "/></g></g></g><g fill="#ff3873" fill-opacity="0.302"><g transform="translate(175.135899, 251.555587)"><g><path d="M 68.058594 -36.480469 C 67.597656 -36.636719 67.140625 -36.789062 66.679688 -36.789062 C 65.453125 -36.789062 64.378906 -36.023438 63.765625 -34.796875 C 54.417969 -14.5625 48.898438 -6.4375 41.695312 -6.4375 C 38.472656 -6.4375 37.09375 -8.429688 37.09375 -12.875 C 37.09375 -24.679688 49.050781 -44.757812 49.050781 -58.402344 C 49.050781 -66.527344 45.679688 -72.808594 34.640625 -72.808594 C 29.585938 -72.808594 24.832031 -69.898438 20.386719 -65.300781 L 21.613281 -68.363281 C 22.378906 -70.359375 20.847656 -72.65625 18.546875 -72.65625 C 17.167969 -72.65625 15.941406 -71.890625 15.480469 -70.511719 C 9.503906 -54.109375 -0.152344 -26.363281 -8.125 -4.292969 C -8.738281 -2.453125 -7.816406 -0.765625 -6.132812 -0.152344 C -4.445312 0.304688 -2.605469 -0.460938 -1.992188 -2.300781 L 8.738281 -32.648438 C 13.640625 -45.679688 25.292969 -66.371094 34.640625 -66.371094 C 40.621094 -66.371094 42.613281 -62.847656 42.613281 -58.402344 C 42.613281 -45.066406 30.65625 -27.285156 30.65625 -12.875 C 30.65625 -5.363281 34.335938 0 41.695312 0 C 52.117188 0 59.320312 -9.042969 69.746094 -32.191406 C 69.898438 -32.648438 70.050781 -33.109375 70.050781 -33.570312 C 70.050781 -34.796875 69.285156 -35.867188 68.058594 -36.480469 Z M 68.058594 -36.480469 "/></g></g></g><g fill="#ff3873" fill-opacity="0.302"><g transform="translate(236.295125, 251.555587)"><g><path d="M 38.933594 -36.480469 C 38.472656 -36.636719 38.015625 -36.789062 37.554688 -36.789062 C 36.328125 -36.789062 35.101562 -36.023438 34.488281 -34.949219 C 27.285156 -19.160156 19.925781 -6.4375 8.890625 -6.4375 C 5.824219 -6.4375 3.984375 -8.738281 3.984375 -12.875 C 3.984375 -17.320312 5.976562 -24.371094 12.261719 -42.152344 C 17.320312 -56.410156 19.925781 -63.460938 20.847656 -66.371094 L 33.417969 -66.371094 C 35.253906 -66.371094 36.636719 -67.753906 36.636719 -69.589844 C 36.636719 -71.277344 35.253906 -72.808594 33.417969 -72.808594 L 23.144531 -72.808594 C 24.21875 -75.722656 30.808594 -94.421875 30.351562 -93.503906 C 31.117188 -95.496094 29.585938 -97.796875 27.285156 -97.796875 C 25.90625 -97.796875 24.679688 -97.03125 24.21875 -95.648438 C 24.066406 -95.035156 16.554688 -73.421875 16.25 -72.808594 L 4.445312 -72.808594 C 2.605469 -72.808594 1.226562 -71.277344 1.226562 -69.589844 C 1.226562 -67.753906 2.605469 -66.371094 4.445312 -66.371094 L 14.101562 -66.371094 L 6.285156 -44.453125 C 1.378906 -31.882812 -2.453125 -18.546875 -2.453125 -12.875 C -2.453125 -5.519531 1.53125 0 8.890625 0 C 22.992188 0 31.578125 -13.027344 40.46875 -32.191406 C 40.621094 -32.648438 40.773438 -33.109375 40.773438 -33.570312 C 40.773438 -34.796875 40.007812 -35.867188 38.933594 -36.480469 Z M 38.933594 -36.480469 "/></g></g></g><g fill="#ff3873" fill-opacity="0.302"><g transform="translate(268.17763, 251.555587)"><g><path d="M 38.628906 -36.480469 C 38.167969 -36.636719 37.707031 -36.789062 37.25 -36.789062 C 36.023438 -36.789062 34.796875 -36.023438 34.183594 -34.949219 C 26.976562 -19.160156 19.621094 -6.4375 8.582031 -6.4375 C 5.519531 -6.4375 3.679688 -8.738281 3.679688 -12.875 C 3.679688 -15.636719 5.363281 -22.53125 8.738281 -32.957031 C 13.183594 -45.984375 17.628906 -58.25 21.917969 -70.511719 L 29.890625 -93.808594 C 30.503906 -95.496094 29.585938 -97.335938 27.898438 -97.949219 C 26.210938 -98.410156 24.371094 -97.640625 23.757812 -95.957031 L 15.789062 -72.65625 C 11.34375 -59.933594 6.746094 -47.058594 2.605469 -34.949219 C -1.226562 -22.839844 -2.757812 -17.320312 -2.757812 -12.875 C -2.757812 -5.519531 1.226562 0 8.582031 0 C 22.6875 0 31.269531 -13.027344 40.160156 -32.191406 C 40.3125 -32.648438 40.46875 -33.109375 40.46875 -33.570312 C 40.46875 -34.796875 39.699219 -35.867188 38.628906 -36.480469 Z M 38.628906 -36.480469 "/></g></g></g><g fill="#ff3873" fill-opacity="0.302"><g transform="translate(299.753571, 251.555587)"><g><path d="M 70.050781 -36.328125 C 69.589844 -36.480469 69.132812 -36.636719 68.671875 -36.636719 C 67.445312 -36.636719 66.371094 -35.867188 65.757812 -34.640625 C 58.09375 -16.554688 47.363281 -2.453125 29.738281 3.527344 L 32.035156 -3.21875 L 44.300781 -38.167969 C 49.203125 -51.503906 53.34375 -62.082031 55.796875 -68.363281 C 56.5625 -70.664062 54.417969 -72.808594 52.578125 -72.808594 C 51.351562 -72.808594 50.125 -71.890625 49.664062 -70.664062 C 39.394531 -43.53125 40.3125 -46.292969 38.320312 -40.3125 C 32.191406 -22.6875 22.378906 -6.4375 14.253906 -6.4375 C 5.519531 -6.4375 4.140625 -11.957031 4.140625 -16.402344 C 4.140625 -21.917969 6.746094 -26.671875 13.488281 -45.21875 L 21.917969 -68.519531 C 22.6875 -70.511719 21.460938 -72.808594 18.855469 -72.808594 C 17.628906 -72.808594 16.402344 -72.042969 15.941406 -70.816406 L 7.359375 -47.519531 C 1.378906 -31.882812 -2.144531 -23.453125 -2.453125 -16.402344 C -2.453125 -8.738281 1.226562 0 14.253906 0 C 18.546875 0 22.378906 -1.839844 25.90625 -5.210938 L 22.074219 5.824219 C 17.933594 6.898438 13.796875 7.664062 9.964844 8.277344 C -8.429688 11.648438 -15.941406 18.699219 -15.941406 28.359375 C -15.941406 37.402344 -9.964844 43.378906 -0.765625 43.226562 C 10.269531 43.074219 19.773438 32.191406 27.132812 11.191406 C 49.511719 4.597656 62.234375 -9.65625 71.738281 -32.035156 C 71.890625 -32.496094 72.042969 -32.957031 72.042969 -33.417969 C 72.042969 -34.640625 71.277344 -35.714844 70.050781 -36.328125 Z M -0.765625 36.789062 C -5.976562 36.941406 -9.503906 33.570312 -9.503906 28.203125 C -8.890625 21.152344 -2.914062 17.167969 11.191406 14.714844 C 13.949219 14.253906 16.707031 13.640625 19.621094 13.027344 C 14.5625 28.511719 7.511719 36.636719 -0.765625 36.789062 Z M -0.765625 36.789062 "/></g></g></g><g fill="#ff3873" fill-opacity="0.502"><g transform="translate(21.829746, 249.902782)"><g><path d="M 55.488281 -36.480469 C 53.804688 -37.09375 51.964844 -36.328125 51.195312 -34.796875 C 42.613281 -15.023438 32.804688 -6.132812 20.234375 -6.4375 C 11.035156 -6.746094 6.132812 -12.109375 6.4375 -20.847656 C 6.589844 -24.066406 7.050781 -26.976562 8.125 -30.964844 C 25.140625 -35.101562 47.976562 -44.914062 47.976562 -61.160156 C 47.976562 -68.519531 42.613281 -72.503906 34.949219 -72.503906 C 16.863281 -72.503906 0.917969 -40.621094 0 -21 C -0.304688 -8.429688 7.359375 0 20.082031 0 C 35.5625 0 47.210938 -10.117188 57.175781 -32.191406 C 57.328125 -32.648438 57.480469 -32.957031 57.480469 -33.417969 C 57.480469 -34.640625 56.714844 -35.867188 55.488281 -36.480469 Z M 10.578125 -38.320312 C 15.480469 -50.125 24.371094 -66.066406 34.949219 -66.066406 C 38.320312 -66.066406 41.539062 -65.300781 41.539062 -61.160156 C 41.539062 -49.816406 23.300781 -42.308594 10.578125 -38.320312 Z M 10.578125 -38.320312 "/></g></g></g><g fill="#ff3873" fill-opacity="0.502"><g transform="translate(70.419903, 249.902782)"><g><path d="M 59.78125 -36.480469 C 59.320312 -36.636719 58.863281 -36.789062 58.402344 -36.789062 C 57.175781 -36.789062 55.796875 -36.175781 55.488281 -34.796875 C 53.035156 -26.058594 45.984375 -16.25 37.863281 -16.25 C 34.949219 -16.25 32.496094 -17.320312 30.503906 -19.46875 C 33.417969 -24.21875 50.429688 -57.480469 55.640625 -68.210938 C 55.796875 -68.671875 55.949219 -69.132812 55.949219 -69.589844 C 55.949219 -70.816406 55.183594 -72.042969 54.109375 -72.65625 C 53.648438 -72.808594 53.191406 -72.964844 52.730469 -72.964844 C 51.503906 -72.964844 50.277344 -72.195312 49.664062 -71.125 C 47.363281 -66.066406 30.042969 -31.730469 28.359375 -28.972656 C 28.511719 -30.042969 28.816406 -31.421875 29.125 -32.648438 C 29.585938 -34.796875 28.050781 -36.789062 25.90625 -36.789062 C 24.527344 -36.789062 23.300781 -35.867188 22.839844 -34.335938 C 21.613281 -30.042969 21.304688 -24.371094 22.992188 -19.773438 C 19.46875 -13.640625 13.796875 -6.4375 8.429688 -6.4375 C 5.058594 -6.4375 3.832031 -8.429688 3.832031 -12.875 C 3.832031 -18.699219 8.429688 -31.730469 21.765625 -68.519531 C 22.53125 -70.511719 21.152344 -72.808594 18.699219 -72.808594 C 17.320312 -72.808594 16.09375 -72.042969 15.636719 -70.816406 C 4.90625 -40.3125 -2.605469 -22.6875 -2.605469 -12.875 C -2.605469 -5.363281 0.765625 0 8.429688 0 C 15.023438 0 19.46875 -3.832031 26.976562 -13.949219 C 29.738281 -11.191406 33.570312 -9.808594 37.707031 -9.808594 C 48.4375 -9.808594 58.09375 -20.847656 61.46875 -32.34375 C 61.621094 -32.804688 61.773438 -33.109375 61.773438 -33.570312 C 61.773438 -34.796875 61.007812 -36.023438 59.78125 -36.480469 Z M 59.78125 -36.480469 "/></g></g></g><g fill="#ff3873" fill-opacity="0.502"><g transform="translate(123.301937, 249.902782)"><g><path d="M 55.488281 -36.480469 C 53.804688 -37.09375 51.964844 -36.328125 51.195312 -34.796875 C 42.613281 -15.023438 32.804688 -6.132812 20.234375 -6.4375 C 11.035156 -6.746094 6.132812 -12.109375 6.4375 -20.847656 C 6.589844 -24.066406 7.050781 -26.976562 8.125 -30.964844 C 25.140625 -35.101562 47.976562 -44.914062 47.976562 -61.160156 C 47.976562 -68.519531 42.613281 -72.503906 34.949219 -72.503906 C 16.863281 -72.503906 0.917969 -40.621094 0 -21 C -0.304688 -8.429688 7.359375 0 20.082031 0 C 35.5625 0 47.210938 -10.117188 57.175781 -32.191406 C 57.328125 -32.648438 57.480469 -32.957031 57.480469 -33.417969 C 57.480469 -34.640625 56.714844 -35.867188 55.488281 -36.480469 Z M 10.578125 -38.320312 C 15.480469 -50.125 24.371094 -66.066406 34.949219 -66.066406 C 38.320312 -66.066406 41.539062 -65.300781 41.539062 -61.160156 C 41.539062 -49.816406 23.300781 -42.308594 10.578125 -38.320312 Z M 10.578125 -38.320312 "/></g></g></g><g fill="#ff3873" fill-opacity="0.502"><g transform="translate(171.892094, 249.902782)"><g><path d="M 68.058594 -36.480469 C 67.597656 -36.636719 67.140625 -36.789062 66.679688 -36.789062 C 65.453125 -36.789062 64.378906 -36.023438 63.765625 -34.796875 C 54.417969 -14.5625 48.898438 -6.4375 41.695312 -6.4375 C 38.472656 -6.4375 37.09375 -8.429688 37.09375 -12.875 C 37.09375 -24.679688 49.050781 -44.757812 49.050781 -58.402344 C 49.050781 -66.527344 45.679688 -72.808594 34.640625 -72.808594 C 29.585938 -72.808594 24.832031 -69.898438 20.386719 -65.300781 L 21.613281 -68.363281 C 22.378906 -70.359375 20.847656 -72.65625 18.546875 -72.65625 C 17.167969 -72.65625 15.941406 -71.890625 15.480469 -70.511719 C 9.503906 -54.109375 -0.152344 -26.363281 -8.125 -4.292969 C -8.738281 -2.453125 -7.816406 -0.765625 -6.132812 -0.152344 C -4.445312 0.304688 -2.605469 -0.460938 -1.992188 -2.300781 L 8.738281 -32.648438 C 13.640625 -45.679688 25.292969 -66.371094 34.640625 -66.371094 C 40.621094 -66.371094 42.613281 -62.847656 42.613281 -58.402344 C 42.613281 -45.066406 30.65625 -27.285156 30.65625 -12.875 C 30.65625 -5.363281 34.335938 0 41.695312 0 C 52.117188 0 59.320312 -9.042969 69.746094 -32.191406 C 69.898438 -32.648438 70.050781 -33.109375 70.050781 -33.570312 C 70.050781 -34.796875 69.285156 -35.867188 68.058594 -36.480469 Z M 68.058594 -36.480469 "/></g></g></g><g fill="#ff3873" fill-opacity="0.502"><g transform="translate(233.051319, 249.902782)"><g><path d="M 38.933594 -36.480469 C 38.472656 -36.636719 38.015625 -36.789062 37.554688 -36.789062 C 36.328125 -36.789062 35.101562 -36.023438 34.488281 -34.949219 C 27.285156 -19.160156 19.925781 -6.4375 8.890625 -6.4375 C 5.824219 -6.4375 3.984375 -8.738281 3.984375 -12.875 C 3.984375 -17.320312 5.976562 -24.371094 12.261719 -42.152344 C 17.320312 -56.410156 19.925781 -63.460938 20.847656 -66.371094 L 33.417969 -66.371094 C 35.253906 -66.371094 36.636719 -67.753906 36.636719 -69.589844 C 36.636719 -71.277344 35.253906 -72.808594 33.417969 -72.808594 L 23.144531 -72.808594 C 24.21875 -75.722656 30.808594 -94.421875 30.351562 -93.503906 C 31.117188 -95.496094 29.585938 -97.796875 27.285156 -97.796875 C 25.90625 -97.796875 24.679688 -97.03125 24.21875 -95.648438 C 24.066406 -95.035156 16.554688 -73.421875 16.25 -72.808594 L 4.445312 -72.808594 C 2.605469 -72.808594 1.226562 -71.277344 1.226562 -69.589844 C 1.226562 -67.753906 2.605469 -66.371094 4.445312 -66.371094 L 14.101562 -66.371094 L 6.285156 -44.453125 C 1.378906 -31.882812 -2.453125 -18.546875 -2.453125 -12.875 C -2.453125 -5.519531 1.53125 0 8.890625 0 C 22.992188 0 31.578125 -13.027344 40.46875 -32.191406 C 40.621094 -32.648438 40.773438 -33.109375 40.773438 -33.570312 C 40.773438 -34.796875 40.007812 -35.867188 38.933594 -36.480469 Z M 38.933594 -36.480469 "/></g></g></g><g fill="#ff3873" fill-opacity="0.502"><g transform="translate(264.933825, 249.902782)"><g><path d="M 38.628906 -36.480469 C 38.167969 -36.636719 37.707031 -36.789062 37.25 -36.789062 C 36.023438 -36.789062 34.796875 -36.023438 34.183594 -34.949219 C 26.976562 -19.160156 19.621094 -6.4375 8.582031 -6.4375 C 5.519531 -6.4375 3.679688 -8.738281 3.679688 -12.875 C 3.679688 -15.636719 5.363281 -22.53125 8.738281 -32.957031 C 13.183594 -45.984375 17.628906 -58.25 21.917969 -70.511719 L 29.890625 -93.808594 C 30.503906 -95.496094 29.585938 -97.335938 27.898438 -97.949219 C 26.210938 -98.410156 24.371094 -97.640625 23.757812 -95.957031 L 15.789062 -72.65625 C 11.34375 -59.933594 6.746094 -47.058594 2.605469 -34.949219 C -1.226562 -22.839844 -2.757812 -17.320312 -2.757812 -12.875 C -2.757812 -5.519531 1.226562 0 8.582031 0 C 22.6875 0 31.269531 -13.027344 40.160156 -32.191406 C 40.3125 -32.648438 40.46875 -33.109375 40.46875 -33.570312 C 40.46875 -34.796875 39.699219 -35.867188 38.628906 -36.480469 Z M 38.628906 -36.480469 "/></g></g></g><g fill="#ff3873" fill-opacity="0.502"><g transform="translate(296.509765, 249.902782)"><g><path d="M 70.050781 -36.328125 C 69.589844 -36.480469 69.132812 -36.636719 68.671875 -36.636719 C 67.445312 -36.636719 66.371094 -35.867188 65.757812 -34.640625 C 58.09375 -16.554688 47.363281 -2.453125 29.738281 3.527344 L 32.035156 -3.21875 L 44.300781 -38.167969 C 49.203125 -51.503906 53.34375 -62.082031 55.796875 -68.363281 C 56.5625 -70.664062 54.417969 -72.808594 52.578125 -72.808594 C 51.351562 -72.808594 50.125 -71.890625 49.664062 -70.664062 C 39.394531 -43.53125 40.3125 -46.292969 38.320312 -40.3125 C 32.191406 -22.6875 22.378906 -6.4375 14.253906 -6.4375 C 5.519531 -6.4375 4.140625 -11.957031 4.140625 -16.402344 C 4.140625 -21.917969 6.746094 -26.671875 13.488281 -45.21875 L 21.917969 -68.519531 C 22.6875 -70.511719 21.460938 -72.808594 18.855469 -72.808594 C 17.628906 -72.808594 16.402344 -72.042969 15.941406 -70.816406 L 7.359375 -47.519531 C 1.378906 -31.882812 -2.144531 -23.453125 -2.453125 -16.402344 C -2.453125 -8.738281 1.226562 0 14.253906 0 C 18.546875 0 22.378906 -1.839844 25.90625 -5.210938 L 22.074219 5.824219 C 17.933594 6.898438 13.796875 7.664062 9.964844 8.277344 C -8.429688 11.648438 -15.941406 18.699219 -15.941406 28.359375 C -15.941406 37.402344 -9.964844 43.378906 -0.765625 43.226562 C 10.269531 43.074219 19.773438 32.191406 27.132812 11.191406 C 49.511719 4.597656 62.234375 -9.65625 71.738281 -32.035156 C 71.890625 -32.496094 72.042969 -32.957031 72.042969 -33.417969 C 72.042969 -34.640625 71.277344 -35.714844 70.050781 -36.328125 Z M -0.765625 36.789062 C -5.976562 36.941406 -9.503906 33.570312 -9.503906 28.203125 C -8.890625 21.152344 -2.914062 17.167969 11.191406 14.714844 C 13.949219 14.253906 16.707031 13.640625 19.621094 13.027344 C 14.5625 28.511719 7.511719 36.636719 -0.765625 36.789062 Z M -0.765625 36.789062 "/></g></g></g><g fill="#8c52ff" fill-opacity="1"><g transform="translate(18.585941, 248.249984)"><g><path d="M 55.488281 -36.480469 C 53.804688 -37.09375 51.964844 -36.328125 51.195312 -34.796875 C 42.613281 -15.023438 32.804688 -6.132812 20.234375 -6.4375 C 11.035156 -6.746094 6.132812 -12.109375 6.4375 -20.847656 C 6.589844 -24.066406 7.050781 -26.976562 8.125 -30.964844 C 25.140625 -35.101562 47.976562 -44.914062 47.976562 -61.160156 C 47.976562 -68.519531 42.613281 -72.503906 34.949219 -72.503906 C 16.863281 -72.503906 0.917969 -40.621094 0 -21 C -0.304688 -8.429688 7.359375 0 20.082031 0 C 35.5625 0 47.210938 -10.117188 57.175781 -32.191406 C 57.328125 -32.648438 57.480469 -32.957031 57.480469 -33.417969 C 57.480469 -34.640625 56.714844 -35.867188 55.488281 -36.480469 Z M 10.578125 -38.320312 C 15.480469 -50.125 24.371094 -66.066406 34.949219 -66.066406 C 38.320312 -66.066406 41.539062 -65.300781 41.539062 -61.160156 C 41.539062 -49.816406 23.300781 -42.308594 10.578125 -38.320312 Z M 10.578125 -38.320312 "/></g></g></g><g fill="#8c52ff" fill-opacity="1"><g transform="translate(67.176098, 248.249984)"><g><path d="M 59.78125 -36.480469 C 59.320312 -36.636719 58.863281 -36.789062 58.402344 -36.789062 C 57.175781 -36.789062 55.796875 -36.175781 55.488281 -34.796875 C 53.035156 -26.058594 45.984375 -16.25 37.863281 -16.25 C 34.949219 -16.25 32.496094 -17.320312 30.503906 -19.46875 C 33.417969 -24.21875 50.429688 -57.480469 55.640625 -68.210938 C 55.796875 -68.671875 55.949219 -69.132812 55.949219 -69.589844 C 55.949219 -70.816406 55.183594 -72.042969 54.109375 -72.65625 C 53.648438 -72.808594 53.191406 -72.964844 52.730469 -72.964844 C 51.503906 -72.964844 50.277344 -72.195312 49.664062 -71.125 C 47.363281 -66.066406 30.042969 -31.730469 28.359375 -28.972656 C 28.511719 -30.042969 28.816406 -31.421875 29.125 -32.648438 C 29.585938 -34.796875 28.050781 -36.789062 25.90625 -36.789062 C 24.527344 -36.789062 23.300781 -35.867188 22.839844 -34.335938 C 21.613281 -30.042969 21.304688 -24.371094 22.992188 -19.773438 C 19.46875 -13.640625 13.796875 -6.4375 8.429688 -6.4375 C 5.058594 -6.4375 3.832031 -8.429688 3.832031 -12.875 C 3.832031 -18.699219 8.429688 -31.730469 21.765625 -68.519531 C 22.53125 -70.511719 21.152344 -72.808594 18.699219 -72.808594 C 17.320312 -72.808594 16.09375 -72.042969 15.636719 -70.816406 C 4.90625 -40.3125 -2.605469 -22.6875 -2.605469 -12.875 C -2.605469 -5.363281 0.765625 0 8.429688 0 C 15.023438 0 19.46875 -3.832031 26.976562 -13.949219 C 29.738281 -11.191406 33.570312 -9.808594 37.707031 -9.808594 C 48.4375 -9.808594 58.09375 -20.847656 61.46875 -32.34375 C 61.621094 -32.804688 61.773438 -33.109375 61.773438 -33.570312 C 61.773438 -34.796875 61.007812 -36.023438 59.78125 -36.480469 Z M 59.78125 -36.480469 "/></g></g></g><g fill="#8c52ff" fill-opacity="1"><g transform="translate(120.058132, 248.249984)"><g><path d="M 55.488281 -36.480469 C 53.804688 -37.09375 51.964844 -36.328125 51.195312 -34.796875 C 42.613281 -15.023438 32.804688 -6.132812 20.234375 -6.4375 C 11.035156 -6.746094 6.132812 -12.109375 6.4375 -20.847656 C 6.589844 -24.066406 7.050781 -26.976562 8.125 -30.964844 C 25.140625 -35.101562 47.976562 -44.914062 47.976562 -61.160156 C 47.976562 -68.519531 42.613281 -72.503906 34.949219 -72.503906 C 16.863281 -72.503906 0.917969 -40.621094 0 -21 C -0.304688 -8.429688 7.359375 0 20.082031 0 C 35.5625 0 47.210938 -10.117188 57.175781 -32.191406 C 57.328125 -32.648438 57.480469 -32.957031 57.480469 -33.417969 C 57.480469 -34.640625 56.714844 -35.867188 55.488281 -36.480469 Z M 10.578125 -38.320312 C 15.480469 -50.125 24.371094 -66.066406 34.949219 -66.066406 C 38.320312 -66.066406 41.539062 -65.300781 41.539062 -61.160156 C 41.539062 -49.816406 23.300781 -42.308594 10.578125 -38.320312 Z M 10.578125 -38.320312 "/></g></g></g><g fill="#8c52ff" fill-opacity="1"><g transform="translate(168.648289, 248.249984)"><g><path d="M 68.058594 -36.480469 C 67.597656 -36.636719 67.140625 -36.789062 66.679688 -36.789062 C 65.453125 -36.789062 64.378906 -36.023438 63.765625 -34.796875 C 54.417969 -14.5625 48.898438 -6.4375 41.695312 -6.4375 C 38.472656 -6.4375 37.09375 -8.429688 37.09375 -12.875 C 37.09375 -24.679688 49.050781 -44.757812 49.050781 -58.402344 C 49.050781 -66.527344 45.679688 -72.808594 34.640625 -72.808594 C 29.585938 -72.808594 24.832031 -69.898438 20.386719 -65.300781 L 21.613281 -68.363281 C 22.378906 -70.359375 20.847656 -72.65625 18.546875 -72.65625 C 17.167969 -72.65625 15.941406 -71.890625 15.480469 -70.511719 C 9.503906 -54.109375 -0.152344 -26.363281 -8.125 -4.292969 C -8.738281 -2.453125 -7.816406 -0.765625 -6.132812 -0.152344 C -4.445312 0.304688 -2.605469 -0.460938 -1.992188 -2.300781 L 8.738281 -32.648438 C 13.640625 -45.679688 25.292969 -66.371094 34.640625 -66.371094 C 40.621094 -66.371094 42.613281 -62.847656 42.613281 -58.402344 C 42.613281 -45.066406 30.65625 -27.285156 30.65625 -12.875 C 30.65625 -5.363281 34.335938 0 41.695312 0 C 52.117188 0 59.320312 -9.042969 69.746094 -32.191406 C 69.898438 -32.648438 70.050781 -33.109375 70.050781 -33.570312 C 70.050781 -34.796875 69.285156 -35.867188 68.058594 -36.480469 Z M 68.058594 -36.480469 "/></g></g></g><g fill="#8c52ff" fill-opacity="1"><g transform="translate(229.807514, 248.249984)"><g><path d="M 38.933594 -36.480469 C 38.472656 -36.636719 38.015625 -36.789062 37.554688 -36.789062 C 36.328125 -36.789062 35.101562 -36.023438 34.488281 -34.949219 C 27.285156 -19.160156 19.925781 -6.4375 8.890625 -6.4375 C 5.824219 -6.4375 3.984375 -8.738281 3.984375 -12.875 C 3.984375 -17.320312 5.976562 -24.371094 12.261719 -42.152344 C 17.320312 -56.410156 19.925781 -63.460938 20.847656 -66.371094 L 33.417969 -66.371094 C 35.253906 -66.371094 36.636719 -67.753906 36.636719 -69.589844 C 36.636719 -71.277344 35.253906 -72.808594 33.417969 -72.808594 L 23.144531 -72.808594 C 24.21875 -75.722656 30.808594 -94.421875 30.351562 -93.503906 C 31.117188 -95.496094 29.585938 -97.796875 27.285156 -97.796875 C 25.90625 -97.796875 24.679688 -97.03125 24.21875 -95.648438 C 24.066406 -95.035156 16.554688 -73.421875 16.25 -72.808594 L 4.445312 -72.808594 C 2.605469 -72.808594 1.226562 -71.277344 1.226562 -69.589844 C 1.226562 -67.753906 2.605469 -66.371094 4.445312 -66.371094 L 14.101562 -66.371094 L 6.285156 -44.453125 C 1.378906 -31.882812 -2.453125 -18.546875 -2.453125 -12.875 C -2.453125 -5.519531 1.53125 0 8.890625 0 C 22.992188 0 31.578125 -13.027344 40.46875 -32.191406 C 40.621094 -32.648438 40.773438 -33.109375 40.773438 -33.570312 C 40.773438 -34.796875 40.007812 -35.867188 38.933594 -36.480469 Z M 38.933594 -36.480469 "/></g></g></g><g fill="#8c52ff" fill-opacity="1"><g transform="translate(261.69002, 248.249984)"><g><path d="M 38.628906 -36.480469 C 38.167969 -36.636719 37.707031 -36.789062 37.25 -36.789062 C 36.023438 -36.789062 34.796875 -36.023438 34.183594 -34.949219 C 26.976562 -19.160156 19.621094 -6.4375 8.582031 -6.4375 C 5.519531 -6.4375 3.679688 -8.738281 3.679688 -12.875 C 3.679688 -15.636719 5.363281 -22.53125 8.738281 -32.957031 C 13.183594 -45.984375 17.628906 -58.25 21.917969 -70.511719 L 29.890625 -93.808594 C 30.503906 -95.496094 29.585938 -97.335938 27.898438 -97.949219 C 26.210938 -98.410156 24.371094 -97.640625 23.757812 -95.957031 L 15.789062 -72.65625 C 11.34375 -59.933594 6.746094 -47.058594 2.605469 -34.949219 C -1.226562 -22.839844 -2.757812 -17.320312 -2.757812 -12.875 C -2.757812 -5.519531 1.226562 0 8.582031 0 C 22.6875 0 31.269531 -13.027344 40.160156 -32.191406 C 40.3125 -32.648438 40.46875 -33.109375 40.46875 -33.570312 C 40.46875 -34.796875 39.699219 -35.867188 38.628906 -36.480469 Z M 38.628906 -36.480469 "/></g></g></g><g fill="#8c52ff" fill-opacity="1"><g transform="translate(293.26596, 248.249984)"><g><path d="M 70.050781 -36.328125 C 69.589844 -36.480469 69.132812 -36.636719 68.671875 -36.636719 C 67.445312 -36.636719 66.371094 -35.867188 65.757812 -34.640625 C 58.09375 -16.554688 47.363281 -2.453125 29.738281 3.527344 L 32.035156 -3.21875 L 44.300781 -38.167969 C 49.203125 -51.503906 53.34375 -62.082031 55.796875 -68.363281 C 56.5625 -70.664062 54.417969 -72.808594 52.578125 -72.808594 C 51.351562 -72.808594 50.125 -71.890625 49.664062 -70.664062 C 39.394531 -43.53125 40.3125 -46.292969 38.320312 -40.3125 C 32.191406 -22.6875 22.378906 -6.4375 14.253906 -6.4375 C 5.519531 -6.4375 4.140625 -11.957031 4.140625 -16.402344 C 4.140625 -21.917969 6.746094 -26.671875 13.488281 -45.21875 L 21.917969 -68.519531 C 22.6875 -70.511719 21.460938 -72.808594 18.855469 -72.808594 C 17.628906 -72.808594 16.402344 -72.042969 15.941406 -70.816406 L 7.359375 -47.519531 C 1.378906 -31.882812 -2.144531 -23.453125 -2.453125 -16.402344 C -2.453125 -8.738281 1.226562 0 14.253906 0 C 18.546875 0 22.378906 -1.839844 25.90625 -5.210938 L 22.074219 5.824219 C 17.933594 6.898438 13.796875 7.664062 9.964844 8.277344 C -8.429688 11.648438 -15.941406 18.699219 -15.941406 28.359375 C -15.941406 37.402344 -9.964844 43.378906 -0.765625 43.226562 C 10.269531 43.074219 19.773438 32.191406 27.132812 11.191406 C 49.511719 4.597656 62.234375 -9.65625 71.738281 -32.035156 C 71.890625 -32.496094 72.042969 -32.957031 72.042969 -33.417969 C 72.042969 -34.640625 71.277344 -35.714844 70.050781 -36.328125 Z M -0.765625 36.789062 C -5.976562 36.941406 -9.503906 33.570312 -9.503906 28.203125 C -8.890625 21.152344 -2.914062 17.167969 11.191406 14.714844 C 13.949219 14.253906 16.707031 13.640625 19.621094 13.027344 C 14.5625 28.511719 7.511719 36.636719 -0.765625 36.789062 Z M -0.765625 36.789062 "/></g></g></g></svg>